<?xml version="1.0" standalone="no"?>
<!DOCTYPE svg PUBLIC "-//W3C//DTD SVG 20010904//EN"
 "http://www.w3.org/TR/2001/REC-SVG-20010904/DTD/svg10.dtd">
<svg version="1.0" xmlns="http://www.w3.org/2000/svg"
 width="849.000000pt" height="980.000000pt" viewBox="0 0 849.000000 980.000000"
 preserveAspectRatio="xMidYMid meet">

<g transform="translate(0.000000,980.000000) scale(0.100000,-0.100000)"
fill="#000000" stroke="none">
<path d="M5040 8343 c-27 -8 -63 -12 -89 -9 -32 4 -42 3 -39 -7 3 -6 17 -49
33 -94 l28 -81 -31 -208 -30 -208 38 -104 c21 -57 41 -106 43 -109 3 -3 48 -1
101 4 l95 8 -41 108 -40 107 30 211 c31 209 31 210 13 262 -30 85 -53 137 -60
136 -3 -1 -26 -8 -51 -16z"/>
<path d="M2116 7745 c-4 -19 -22 -55 -41 -79 l-34 -45 72 -68 c66 -62 77 -69
137 -81 36 -8 130 -29 210 -48 145 -35 146 -35 208 -90 36 -33 68 -54 77 -51
7 3 51 11 97 17 46 6 91 13 101 16 18 6 18 6 0 23 -10 9 -71 64 -135 122
l-117 105 -103 23 c-300 66 -307 69 -381 132 -38 33 -72 59 -76 59 -5 0 -12
-16 -15 -35z"/>
<path d="M5493 7426 c-71 -32 -88 -122 -34 -177 41 -41 98 -41 143 0 29 26 33
35 33 80 0 41 -5 55 -25 76 -32 31 -76 39 -117 21z"/>
<path d="M5927 7098 c-36 -13 -37 -8 51 -223 240 -585 387 -1200 448 -1873 6
-60 9 -72 23 -68 9 3 33 8 53 12 65 11 126 58 153 117 24 49 25 61 25 247 0
223 -17 399 -61 612 -82 401 -219 787 -351 988 -53 81 -137 166 -182 185 -40
17 -117 18 -159 3z"/>
<path d="M2064 7016 c-117 -51 -87 -207 39 -206 39 1 73 27 92 73 21 50 1 104
-46 129 -40 21 -44 21 -85 4z"/>
<path d="M5115 6944 c-37 -5 -61 -7 -855 -94 -1252 -137 -1377 -151 -1555
-171 -279 -32 -381 -73 -521 -214 -86 -86 -134 -168 -171 -290 -24 -82 -24
-284 0 -375 62 -233 237 -415 467 -484 101 -31 204 -30 495 3 149 17 520 57
825 91 305 33 611 67 680 75 69 8 276 31 460 50 184 20 362 43 395 50 227 55
420 244 484 475 26 92 28 237 5 348 -51 249 -236 447 -476 511 -76 20 -181 31
-233 25z m190 -39 c217 -45 401 -212 474 -428 105 -308 -11 -640 -276 -795
-132 -78 -54 -66 -1573 -233 -201 -22 -547 -60 -769 -84 -455 -51 -562 -55
-666 -25 -120 34 -192 76 -280 165 -90 89 -150 196 -179 316 -20 82 -21 265
-2 337 32 120 121 263 210 336 70 57 187 115 264 131 39 8 276 37 529 65 252
28 557 61 678 75 121 13 450 49 730 80 281 30 539 59 575 64 102 13 209 12
285 -4z"/>
<path d="M4895 6805 c-108 -14 -1170 -131 -1815 -200 -179 -20 -363 -42 -409
-50 -213 -36 -384 -184 -453 -390 -19 -57 -23 -90 -22 -180 1 -95 5 -121 28
-185 52 -138 155 -256 277 -318 129 -64 232 -75 467 -47 70 8 357 40 637 70
1450 158 1584 174 1658 200 135 47 259 158 321 288 177 374 -79 806 -488 822
-50 2 -140 -2 -201 -10z m300 -200 c27 -26 32 -63 14 -97 -6 -11 -55 -75 -110
-144 -54 -68 -99 -125 -99 -128 0 -2 63 -54 140 -116 136 -108 140 -113 140
-150 0 -55 -31 -90 -80 -90 -35 0 -55 13 -176 109 l-137 110 -74 -92 c-165
-205 -174 -212 -234 -187 -35 15 -49 37 -49 78 0 30 41 90 170 249 l51 61
-133 107 c-73 59 -140 120 -148 137 -13 27 -13 33 5 66 26 48 63 61 107 40 18
-9 87 -59 153 -112 66 -53 123 -95 126 -94 4 2 37 41 75 88 149 188 152 190
195 190 29 0 47 -7 64 -25z m-1867 -210 c42 -50 33 -70 -107 -244 -50 -63 -90
-117 -89 -121 2 -4 64 -57 138 -116 130 -105 135 -111 138 -150 2 -33 -2 -45
-24 -67 -50 -51 -73 -41 -266 115 -53 43 -99 78 -101 78 -3 0 -28 -28 -55 -62
-181 -227 -172 -218 -218 -218 -49 0 -84 34 -84 80 0 34 13 55 109 176 l109
137 -135 110 c-74 60 -139 120 -145 132 -23 52 19 115 76 115 35 0 66 -21 249
-167 l64 -51 59 71 c33 39 83 102 111 138 29 37 58 70 65 73 27 12 83 -4 106
-29z"/>
<path d="M1636 6626 c-203 -74 -330 -603 -313 -1305 6 -259 19 -373 67 -590
36 -165 42 -183 76 -232 37 -55 93 -81 181 -85 l74 -4 -6 33 c-40 242 -60 540
-60 907 1 429 22 690 92 1100 14 85 26 162 27 170 1 21 -86 24 -138 6z"/>
<path d="M6626 6438 c3 -13 13 -38 20 -57 20 -47 81 -283 94 -363 l12 -66 32
36 c73 82 121 204 109 279 -17 112 -117 193 -235 193 -36 0 -39 -2 -32 -22z"/>
<path d="M1140 5851 c-118 -75 -169 -193 -126 -295 19 -46 82 -113 126 -136
l37 -19 7 182 c3 100 9 208 12 240 4 31 3 57 -2 57 -5 0 -29 -13 -54 -29z"/>
<path d="M4720 5341 c-283 -33 -810 -91 -1170 -130 -722 -78 -772 -85 -846
-112 -90 -34 -117 -77 -160 -254 -49 -203 -65 -351 -71 -646 -6 -264 -2 -349
16 -349 4 0 8 120 8 268 1 281 14 441 54 642 47 238 70 280 172 318 56 21 167
39 167 27 0 -4 -15 -73 -34 -154 -71 -303 -106 -567 -115 -881 l-6 -215 -32 3
c-24 1 -33 -2 -33 -13 0 -13 23 -15 143 -17 702 -12 1292 30 1952 137 467 76
1015 205 870 205 -19 0 -26 7 -31 28 -92 398 -192 686 -355 1031 -32 68 -59
128 -59 133 0 13 171 8 213 -6 56 -21 71 -38 131 -155 123 -241 237 -597 288
-898 8 -47 17 -73 25 -73 17 0 18 -5 -17 161 -66 323 -136 536 -261 796 -57
119 -94 165 -150 187 -79 32 -162 28 -699 -33z m498 -108 c113 -238 176 -394
246 -613 56 -175 121 -433 113 -453 -5 -14 -24 -18 -322 -83 -681 -149 -1319
-220 -2077 -231 l-418 -6 0 114 c0 302 47 676 125 1007 l36 148 337 37 c185
21 542 60 792 87 250 28 590 65 755 84 165 19 312 34 326 35 23 1 31 -10 87
-126z"/>
<path d="M4835 5029 c-843 -88 -1595 -175 -1642 -190 -65 -21 -123 -128 -109
-201 13 -65 64 -102 136 -100 25 1 270 27 545 57 275 30 534 58 575 62 84 9
78 -2 64 108 -5 48 -4 51 23 63 59 27 289 58 509 68 183 8 220 3 226 -31 3
-14 1 -25 -3 -25 -5 0 -9 5 -9 10 0 6 -8 10 -17 11 -15 0 -15 2 2 9 26 11 -3
12 -30 0 -19 -7 -18 -8 7 -15 24 -6 25 -9 17 -38 -11 -39 -11 -37 1 -37 6 0
10 13 10 30 0 38 26 31 35 -11 10 -42 19 -43 54 -4 21 24 31 46 31 68 0 51
-43 132 -86 161 -47 32 -79 32 -339 5z"/>
<path d="M4798 4873 c18 -2 45 -2 60 0 15 2 0 4 -33 4 -33 0 -45 -2 -27 -4z"/>
<path d="M5048 4873 c7 -3 16 -2 19 1 4 3 -2 6 -13 5 -11 0 -14 -3 -6 -6z"/>
<path d="M4728 4863 c6 -2 18 -2 25 0 6 3 1 5 -13 5 -14 0 -19 -2 -12 -5z"/>
<path d="M4813 4853 c9 -2 25 -2 35 0 9 3 1 5 -18 5 -19 0 -27 -2 -17 -5z"/>
<path d="M4588 4843 c6 -2 18 -2 25 0 6 3 1 5 -13 5 -14 0 -19 -2 -12 -5z"/>
<path d="M5048 4843 c7 -3 16 -2 19 1 4 3 -2 6 -13 5 -11 0 -14 -3 -6 -6z"/>
<path d="M4417 4760 c3 -11 7 -20 9 -20 2 0 4 9 4 20 0 11 -4 20 -9 20 -5 0
-7 -9 -4 -20z"/>
<path d="M4448 4753 c-2 -10 -1 -29 3 -43 6 -20 7 -17 8 18 1 44 -4 54 -11 25z"/>
<path d="M5169 4724 c1 -24 6 -42 10 -40 8 6 2 74 -8 80 -3 2 -4 -16 -2 -40z"/>
<path d="M4435 4668 c1 -13 9 -24 18 -26 22 -4 21 4 -1 29 -19 19 -19 19 -17
-3z"/>
<path d="M5150 4626 c0 -14 4 -27 8 -30 5 -3 6 8 4 25 -5 35 -12 38 -12 5z"/>
<path d="M4537 4511 c-17 -6 -17 -8 1 -24 19 -17 20 -17 20 8 0 14 -1 25 -2
24 0 0 -9 -4 -19 -8z"/>
<path d="M5018 4513 c6 -2 18 -2 25 0 6 3 1 5 -13 5 -14 0 -19 -2 -12 -5z"/>
<path d="M4728 4413 c7 -3 16 -2 19 1 4 3 -2 6 -13 5 -11 0 -14 -3 -6 -6z"/>
<path d="M4900 4410 c-11 -8 -7 -9 15 -4 37 8 45 14 19 14 -10 0 -26 -5 -34
-10z"/>
<path d="M6199 4645 c-38 -20 -59 -58 -59 -105 0 -104 146 -134 195 -40 29 56
14 120 -34 145 -37 18 -68 19 -102 0z"/>
<path d="M1958 4229 c-37 -27 -53 -79 -38 -124 15 -46 44 -65 98 -65 98 0 146
116 77 186 -31 31 -98 33 -137 3z"/>
<path d="M2535 3733 c-34 -7 -79 -26 -108 -47 -68 -50 -132 -190 -160 -354 -8
-45 -17 -85 -20 -88 -3 -4 -19 3 -36 15 -23 17 -31 32 -37 69 -13 88 -31 101
-173 126 -124 21 -143 21 -139 -1 3 -15 25 -22 113 -36 60 -10 119 -24 131
-32 13 -8 24 -29 28 -54 10 -62 25 -87 68 -111 l40 -22 -7 -82 c-4 -44 -12
-86 -18 -92 -7 -5 -30 -16 -52 -23 -154 -50 -508 -262 -489 -292 9 -15 43 0
113 51 136 98 404 229 428 209 6 -6 10 -16 7 -23 -9 -23 14 -142 36 -189 26
-56 89 -121 130 -136 l30 -10 0 62 c0 203 88 797 150 1007 5 19 10 38 10 41 0
10 -22 16 -45 12z"/>
<path d="M5822 3708 c3 -13 22 -99 43 -193 45 -209 89 -507 106 -723 7 -89 17
-162 22 -162 4 0 30 22 57 49 92 92 109 221 70 509 -45 322 -93 440 -209 514
-57 35 -95 38 -89 6z"/>
<path d="M3900 3414 c-337 -19 -829 -72 -918 -99 -93 -28 -156 -101 -181 -210
-38 -167 -42 -1398 -4 -1436 22 -22 519 -90 758 -104 61 -4 121 -9 135 -11 14
-2 181 -7 371 -11 l346 -6 7 34 c13 69 65 160 129 223 103 102 207 146 348
146 135 0 248 -47 345 -144 180 -180 194 -453 33 -656 l-40 -50 38 4 c21 3 63
8 93 11 30 3 83 11 117 16 l61 11 7 76 c12 138 -19 336 -72 455 -14 31 -24 59
-22 61 2 3 16 7 30 11 24 6 28 2 48 -47 54 -135 73 -245 72 -410 -1 -71 2
-128 6 -128 25 0 181 43 256 70 100 37 98 31 72 166 -27 142 -86 296 -156 411
l-20 32 -64 -25 -65 -24 0 244 c0 361 -30 996 -52 1086 -29 120 -95 185 -216
214 -68 16 -280 43 -562 72 -147 15 -742 27 -900 18z m433 -368 c98 -48 176
-155 212 -293 9 -35 16 -100 16 -163 -1 -237 -89 -410 -253 -497 -48 -25 -63
-28 -153 -28 -92 0 -104 2 -153 29 -227 126 -299 484 -155 771 51 101 127 169
226 201 69 23 193 13 260 -20z m-753 -296 l0 -300 30 0 30 0 0 -85 0 -85 -30
0 -30 0 0 -110 0 -110 -103 0 -104 0 1 108 1 107 -202 3 -203 2 0 91 0 90 93
134 c50 74 141 207 201 295 l110 160 103 0 103 0 0 -300z m1722 3 l3 -298 33
-3 32 -3 0 -85 0 -84 -35 0 -35 0 0 -110 0 -110 -100 0 -100 0 0 110 0 110
-205 0 -205 0 0 88 0 87 100 145 c54 80 141 206 191 280 128 187 106 170 220
170 l99 0 2 -297z"/>
<path d="M4114 2821 c-101 -62 -126 -335 -43 -465 67 -106 173 -65 226 87 27
77 25 236 -4 297 -45 97 -107 125 -179 81z"/>
<path d="M3282 2591 c-45 -71 -82 -131 -82 -133 0 -3 38 -6 85 -7 l85 -2 0
135 c0 75 -1 136 -3 136 -2 0 -40 -58 -85 -129z"/>
<path d="M5010 2595 c-45 -68 -81 -128 -81 -132 1 -4 37 -9 81 -11 l80 -4 1
84 c0 46 1 107 3 136 1 28 1 52 -1 52 -1 0 -39 -56 -83 -125z"/>
<path d="M7406 3169 c-72 -17 -126 -78 -126 -142 0 -22 -6 -26 -42 -32 -104
-18 -174 -85 -193 -187 -5 -28 -14 -39 -36 -48 -57 -24 -107 -97 -132 -194 -9
-32 -18 -60 -21 -63 -7 -7 -76 36 -76 48 0 5 7 55 15 112 20 128 25 371 8 388
-26 26 -33 -3 -33 -144 0 -130 -20 -320 -34 -335 -4 -3 -35 5 -70 17 -88 31
-134 26 -163 -18 -13 -19 -23 -39 -23 -46 0 -7 34 -19 82 -28 46 -9 115 -32
154 -51 81 -41 189 -135 235 -207 18 -27 35 -49 39 -49 12 0 40 70 40 99 0 29
-60 113 -110 154 -18 15 -21 25 -15 60 16 103 61 188 117 218 16 9 21 4 37
-34 19 -43 53 -77 78 -77 22 0 43 31 43 65 0 35 -37 76 -80 90 -22 7 -24 25
-6 73 19 53 71 99 123 110 52 12 70 8 78 -17 10 -33 51 -63 81 -59 23 2 30 9
32 31 4 33 -16 60 -60 78 -28 12 -30 15 -25 53 4 29 15 49 37 69 26 23 39 27
90 27 60 0 80 10 57 27 -20 17 -60 21 -101 12z m-45 -246 c13 -16 12 -17 -3
-4 -17 13 -22 21 -14 21 2 0 10 -8 17 -17z m-223 -247 c5 -36 -23 -25 -37 16
-15 42 -14 43 12 26 12 -9 23 -27 25 -42z"/>
<path d="M6425 2413 c-15 -27 -45 -72 -67 -101 -22 -30 -38 -55 -36 -57 1 -1
23 -13 48 -25 78 -39 153 -95 216 -162 60 -62 137 -170 149 -209 4 -10 10 -19
15 -19 10 0 87 103 159 213 l52 78 -28 52 c-39 71 -135 167 -213 210 -71 39
-166 67 -228 67 -37 0 -42 -3 -67 -47z"/>
<path d="M6190 2120 l-86 -86 64 -74 c81 -95 172 -231 224 -334 22 -45 42 -83
44 -85 12 -13 274 234 274 258 0 24 -75 148 -126 208 -74 86 -246 205 -290
201 -11 -1 -57 -40 -104 -88z"/>
<path d="M5976 1949 c-50 -32 -107 -66 -128 -76 -44 -21 -46 -31 -14 -81 61
-98 124 -274 150 -420 7 -46 16 -86 19 -89 11 -11 294 148 390 218 28 20 -201
377 -317 495 -8 8 -35 -4 -100 -47z"/>
</g>
</svg>
