<?xml version="1.0"?>
<svg width="849" height="980" xmlns="http://www.w3.org/2000/svg" xmlns:svg="http://www.w3.org/2000/svg" preserveAspectRatio="xMidYMid meet" version="1.0">
 <g class="layer">
  <title>Layer 1</title>
  <g fill="#000000" id="svg_1" transform="matrix(0.1 0 0 -0.1 0 0)">
   <path d="m5040,-1457c-27,-8 -63,-12 -89,-9c-32,4 -42,3 -39,-7c3,-6 17,-49 33,-94l28,-81l-31,-208l-30,-208l38,-104c21,-57 41,-106 43,-109c3,-3 48,-1 101,4l95,8l-41,108l-40,107l30,211c31,209 31,210 13,262c-30,85 -53,137 -60,136c-3,-1 -26,-8 -51,-16z" fill="#e9c46a" id="svg_2"/>
   <path d="m2116,-2055c-4,-19 -22,-55 -41,-79l-34,-45l72,-68c66,-62 77,-69 137,-81c36,-8 130,-29 210,-48c145,-35 146,-35 208,-90c36,-33 68,-54 77,-51c7,3 51,11 97,17c46,6 91,13 101,16c18,6 18,6 0,23c-10,9 -71,64 -135,122l-117,105l-103,23c-300,66 -307,69 -381,132c-38,33 -72,59 -76,59c-5,0 -12,-16 -15,-35z" fill="#e9c46a" id="svg_3"/>
   <path d="m5493,-2374c-71,-32 -88,-122 -34,-177c41,-41 98,-41 143,0c29,26 33,35 33,80c0,41 -5,55 -25,76c-32,31 -76,39 -117,21z" fill="#e9c46a" id="svg_4"/>
   <path d="m5927,-2702c-36,-13 -37,-8 51,-223c240,-585 387,-1200 448,-1873c6,-60 9,-72 23,-68c9,3 33,8 53,12c65,11 126,58 153,117c24,49 25,61 25,247c0,223 -17,399 -61,612c-82,401 -219,787 -351,988c-53,81 -137,166 -182,185c-40,17 -117,18 -159,3z" fill="#e9c46a" id="svg_5"/>
   <path d="m2064,-2784c-117,-51 -87,-207 39,-206c39,1 73,27 92,73c21,50 1,104 -46,129c-40,21 -44,21 -85,4z" fill="#e9c46a" id="svg_6"/>
   <path d="m5115,-2856c-37,-5 -61,-7 -855,-94c-1252,-137 -1377,-151 -1555,-171c-279,-32 -381,-73 -521,-214c-86,-86 -134,-168 -171,-290c-24,-82 -24,-284 0,-375c62,-233 237,-415 467,-484c101,-31 204,-30 495,3c149,17 520,57 825,91c305,33 611,67 680,75c69,8 276,31 460,50c184,20 362,43 395,50c227,55 420,244 484,475c26,92 28,237 5,348c-51,249 -236,447 -476,511c-76,20 -181,31 -233,25zm190,-39c217,-45 401,-212 474,-428c105,-308 -11,-640 -276,-795c-132,-78 -54,-66 -1573,-233c-201,-22 -547,-60 -769,-84c-455,-51 -562,-55 -666,-25c-120,34 -192,76 -280,165c-90,89 -150,196 -179,316c-20,82 -21,265 -2,337c32,120 121,263 210,336c70,57 187,115 264,131c39,8 276,37 529,65c252,28 557,61 678,75c121,13 450,49 730,80c281,30 539,59 575,64c102,13 209,12 285,-4z" fill="#e9c46a" id="svg_7"/>
   <path d="m4895,-2995c-108,-14 -1170,-131 -1815,-200c-179,-20 -363,-42 -409,-50c-213,-36 -384,-184 -453,-390c-19,-57 -23,-90 -22,-180c1,-95 5,-121 28,-185c52,-138 155,-256 277,-318c129,-64 232,-75 467,-47c70,8 357,40 637,70c1450,158 1584,174 1658,200c135,47 259,158 321,288c177,374 -79,806 -488,822c-50,2 -140,-2 -201,-10zm300,-200c27,-26 32,-63 14,-97c-6,-11 -55,-75 -110,-144c-54,-68 -99,-125 -99,-128c0,-2 63,-54 140,-116c136,-108 140,-113 140,-150c0,-55 -31,-90 -80,-90c-35,0 -55,13 -176,109l-137,110l-74,-92c-165,-205 -174,-212 -234,-187c-35,15 -49,37 -49,78c0,30 41,90 170,249l51,61l-133,107c-73,59 -140,120 -148,137c-13,27 -13,33 5,66c26,48 63,61 107,40c18,-9 87,-59 153,-112c66,-53 123,-95 126,-94c4,2 37,41 75,88c149,188 152,190 195,190c29,0 47,-7 64,-25zm-1867,-210c42,-50 33,-70 -107,-244c-50,-63 -90,-117 -89,-121c2,-4 64,-57 138,-116c130,-105 135,-111 138,-150c2,-33 -2,-45 -24,-67c-50,-51 -73,-41 -266,115c-53,43 -99,78 -101,78c-3,0 -28,-28 -55,-62c-181,-227 -172,-218 -218,-218c-49,0 -84,34 -84,80c0,34 13,55 109,176l109,137l-135,110c-74,60 -139,120 -145,132c-23,52 19,115 76,115c35,0 66,-21 249,-167l64,-51l59,71c33,39 83,102 111,138c29,37 58,70 65,73c27,12 83,-4 106,-29z" fill="#e9c46a" id="svg_8"/>
   <path d="m1636,-3174c-203,-74 -330,-603 -313,-1305c6,-259 19,-373 67,-590c36,-165 42,-183 76,-232c37,-55 93,-81 181,-85l74,-4l-6,33c-40,242 -60,540 -60,907c1,429 22,690 92,1100c14,85 26,162 27,170c1,21 -86,24 -138,6z" fill="#e9c46a" id="svg_9"/>
   <path d="m6626,-3362c3,-13 13,-38 20,-57c20,-47 81,-283 94,-363l12,-66l32,36c73,82 121,204 109,279c-17,112 -117,193 -235,193c-36,0 -39,-2 -32,-22z" fill="#e9c46a" id="svg_10"/>
   <path d="m1140,-3949c-118,-75 -169,-193 -126,-295c19,-46 82,-113 126,-136l37,-19l7,182c3,100 9,208 12,240c4,31 3,57 -2,57c-5,0 -29,-13 -54,-29z" fill="#e9c46a" id="svg_11"/>
   <path d="m4720,-4459c-283,-33 -810,-91 -1170,-130c-722,-78 -772,-85 -846,-112c-90,-34 -117,-77 -160,-254c-49,-203 -65,-351 -71,-646c-6,-264 -2,-349 16,-349c4,0 8,120 8,268c1,281 14,441 54,642c47,238 70,280 172,318c56,21 167,39 167,27c0,-4 -15,-73 -34,-154c-71,-303 -106,-567 -115,-881l-6,-215l-32,3c-24,1 -33,-2 -33,-13c0,-13 23,-15 143,-17c702,-12 1292,30 1952,137c467,76 1015,205 870,205c-19,0 -26,7 -31,28c-92,398 -192,686 -355,1031c-32,68 -59,128 -59,133c0,13 171,8 213,-6c56,-21 71,-38 131,-155c123,-241 237,-597 288,-898c8,-47 17,-73 25,-73c17,0 18,-5 -17,161c-66,323 -136,536 -261,796c-57,119 -94,165 -150,187c-79,32 -162,28 -699,-33zm498,-108c113,-238 176,-394 246,-613c56,-175 121,-433 113,-453c-5,-14 -24,-18 -322,-83c-681,-149 -1319,-220 -2077,-231l-418,-6l0,114c0,302 47,676 125,1007l36,148l337,37c185,21 542,60 792,87c250,28 590,65 755,84c165,19 312,34 326,35c23,1 31,-10 87,-126z" fill="#e9c46a" id="svg_12"/>
   <path d="m4835,-4771c-843,-88 -1595,-175 -1642,-190c-65,-21 -123,-128 -109,-201c13,-65 64,-102 136,-100c25,1 270,27 545,57c275,30 534,58 575,62c84,9 78,-2 64,108c-5,48 -4,51 23,63c59,27 289,58 509,68c183,8 220,3 226,-31c3,-14 1,-25 -3,-25c-5,0 -9,5 -9,10c0,6 -8,10 -17,11c-15,0 -15,2 2,9c26,11 -3,12 -30,0c-19,-7 -18,-8 7,-15c24,-6 25,-9 17,-38c-11,-39 -11,-37 1,-37c6,0 10,13 10,30c0,38 26,31 35,-11c10,-42 19,-43 54,-4c21,24 31,46 31,68c0,51 -43,132 -86,161c-47,32 -79,32 -339,5z" fill="#e9c46a" id="svg_13"/>
   <path d="m4798,-4927c18,-2 45,-2 60,0c15,2 0,4 -33,4c-33,0 -45,-2 -27,-4z" fill="#e9c46a" id="svg_14"/>
   <path d="m5048,-4927c7,-3 16,-2 19,1c4,3 -2,6 -13,5c-11,0 -14,-3 -6,-6z" fill="#e9c46a" id="svg_15"/>
   <path d="m4728,-4937c6,-2 18,-2 25,0c6,3 1,5 -13,5c-14,0 -19,-2 -12,-5z" fill="#e9c46a" id="svg_16"/>
   <path d="m4813,-4947c9,-2 25,-2 35,0c9,3 1,5 -18,5c-19,0 -27,-2 -17,-5z" fill="#e9c46a" id="svg_17"/>
   <path d="m4588,-4957c6,-2 18,-2 25,0c6,3 1,5 -13,5c-14,0 -19,-2 -12,-5z" fill="#e9c46a" id="svg_18"/>
   <path d="m5048,-4957c7,-3 16,-2 19,1c4,3 -2,6 -13,5c-11,0 -14,-3 -6,-6z" fill="#e9c46a" id="svg_19"/>
   <path d="m4417,-5040c3,-11 7,-20 9,-20c2,0 4,9 4,20c0,11 -4,20 -9,20c-5,0 -7,-9 -4,-20z" fill="#e9c46a" id="svg_20"/>
   <path d="m4448,-5047c-2,-10 -1,-29 3,-43c6,-20 7,-17 8,18c1,44 -4,54 -11,25z" fill="#e9c46a" id="svg_21"/>
   <path d="m5169,-5076c1,-24 6,-42 10,-40c8,6 2,74 -8,80c-3,2 -4,-16 -2,-40z" fill="#e9c46a" id="svg_22"/>
   <path d="m4435,-5132c1,-13 9,-24 18,-26c22,-4 21,4 -1,29c-19,19 -19,19 -17,-3z" fill="#e9c46a" id="svg_23"/>
   <path d="m5150,-5174c0,-14 4,-27 8,-30c5,-3 6,8 4,25c-5,35 -12,38 -12,5z" fill="#e9c46a" id="svg_24"/>
   <path d="m4537,-5289c-17,-6 -17,-8 1,-24c19,-17 20,-17 20,8c0,14 -1,25 -2,24c0,0 -9,-4 -19,-8z" fill="#e9c46a" id="svg_25"/>
   <path d="m5018,-5287c6,-2 18,-2 25,0c6,3 1,5 -13,5c-14,0 -19,-2 -12,-5z" fill="#e9c46a" id="svg_26"/>
   <path d="m4728,-5387c7,-3 16,-2 19,1c4,3 -2,6 -13,5c-11,0 -14,-3 -6,-6z" fill="#e9c46a" id="svg_27"/>
   <path d="m4900,-5390c-11,-8 -7,-9 15,-4c37,8 45,14 19,14c-10,0 -26,-5 -34,-10z" fill="#e9c46a" id="svg_28"/>
   <path d="m6199,-5155c-38,-20 -59,-58 -59,-105c0,-104 146,-134 195,-40c29,56 14,120 -34,145c-37,18 -68,19 -102,0z" fill="#e9c46a" id="svg_29"/>
   <path d="m1958,-5571c-37,-27 -53,-79 -38,-124c15,-46 44,-65 98,-65c98,0 146,116 77,186c-31,31 -98,33 -137,3z" fill="#e9c46a" id="svg_30"/>
   <path d="m2535,-6067c-34,-7 -79,-26 -108,-47c-68,-50 -132,-190 -160,-354c-8,-45 -17,-85 -20,-88c-3,-4 -19,3 -36,15c-23,17 -31,32 -37,69c-13,88 -31,101 -173,126c-124,21 -143,21 -139,-1c3,-15 25,-22 113,-36c60,-10 119,-24 131,-32c13,-8 24,-29 28,-54c10,-62 25,-87 68,-111l40,-22l-7,-82c-4,-44 -12,-86 -18,-92c-7,-5 -30,-16 -52,-23c-154,-50 -508,-262 -489,-292c9,-15 43,0 113,51c136,98 404,229 428,209c6,-6 10,-16 7,-23c-9,-23 14,-142 36,-189c26,-56 89,-121 130,-136l30,-10l0,62c0,203 88,797 150,1007c5,19 10,38 10,41c0,10 -22,16 -45,12z" fill="#e9c46a" id="svg_31"/>
   <path d="m5822,-6092c3,-13 22,-99 43,-193c45,-209 89,-507 106,-723c7,-89 17,-162 22,-162c4,0 30,22 57,49c92,92 109,221 70,509c-45,322 -93,440 -209,514c-57,35 -95,38 -89,6z" fill="#e9c46a" id="svg_32"/>
   <path d="m3900,-6386c-337,-19 -829,-72 -918,-99c-93,-28 -156,-101 -181,-210c-38,-167 -42,-1398 -4,-1436c22,-22 519,-90 758,-104c61,-4 121,-9 135,-11c14,-2 181,-7 371,-11l346,-6l7,34c13,69 65,160 129,223c103,102 207,146 348,146c135,0 248,-47 345,-144c180,-180 194,-453 33,-656l-40,-50l38,4c21,3 63,8 93,11c30,3 83,11 117,16l61,11l7,76c12,138 -19,336 -72,455c-14,31 -24,59 -22,61c2,3 16,7 30,11c24,6 28,2 48,-47c54,-135 73,-245 72,-410c-1,-71 2,-128 6,-128c25,0 181,43 256,70c100,37 98,31 72,166c-27,142 -86,296 -156,411l-20,32l-64,-25l-65,-24l0,244c0,361 -30,996 -52,1086c-29,120 -95,185 -216,214c-68,16 -280,43 -562,72c-147,15 -742,27 -900,18zm433,-368c98,-48 176,-155 212,-293c9,-35 16,-100 16,-163c-1,-237 -89,-410 -253,-497c-48,-25 -63,-28 -153,-28c-92,0 -104,2 -153,29c-227,126 -299,484 -155,771c51,101 127,169 226,201c69,23 193,13 260,-20zm-753,-296l0,-300l30,0l30,0l0,-85l0,-85l-30,0l-30,0l0,-110l0,-110l-103,0l-104,0l1,108l1,107l-202,3l-203,2l0,91l0,90l93,134c50,74 141,207 201,295l110,160l103,0l103,0l0,-300zm1722,3l3,-298l33,-3l32,-3l0,-85l0,-84l-35,0l-35,0l0,-110l0,-110l-100,0l-100,0l0,110l0,110l-205,0l-205,0l0,88l0,87l100,145c54,80 141,206 191,280c128,187 106,170 220,170l99,0l2,-297z" fill="#e9c46a" id="svg_33"/>
   <path d="m4114,-6979c-101,-62 -126,-335 -43,-465c67,-106 173,-65 226,87c27,77 25,236 -4,297c-45,97 -107,125 -179,81z" fill="#e9c46a" id="svg_34"/>
   <path d="m3282,-7209c-45,-71 -82,-131 -82,-133c0,-3 38,-6 85,-7l85,-2l0,135c0,75 -1,136 -3,136c-2,0 -40,-58 -85,-129z" fill="#e9c46a" id="svg_35"/>
   <path d="m5010,-7205c-45,-68 -81,-128 -81,-132c1,-4 37,-9 81,-11l80,-4l1,84c0,46 1,107 3,136c1,28 1,52 -1,52c-1,0 -39,-56 -83,-125z" fill="#e9c46a" id="svg_36"/>
   <path d="m7406,-6631c-72,-17 -126,-78 -126,-142c0,-22 -6,-26 -42,-32c-104,-18 -174,-85 -193,-187c-5,-28 -14,-39 -36,-48c-57,-24 -107,-97 -132,-194c-9,-32 -18,-60 -21,-63c-7,-7 -76,36 -76,48c0,5 7,55 15,112c20,128 25,371 8,388c-26,26 -33,-3 -33,-144c0,-130 -20,-320 -34,-335c-4,-3 -35,5 -70,17c-88,31 -134,26 -163,-18c-13,-19 -23,-39 -23,-46c0,-7 34,-19 82,-28c46,-9 115,-32 154,-51c81,-41 189,-135 235,-207c18,-27 35,-49 39,-49c12,0 40,70 40,99c0,29 -60,113 -110,154c-18,15 -21,25 -15,60c16,103 61,188 117,218c16,9 21,4 37,-34c19,-43 53,-77 78,-77c22,0 43,31 43,65c0,35 -37,76 -80,90c-22,7 -24,25 -6,73c19,53 71,99 123,110c52,12 70,8 78,-17c10,-33 51,-63 81,-59c23,2 30,9 32,31c4,33 -16,60 -60,78c-28,12 -30,15 -25,53c4,29 15,49 37,69c26,23 39,27 90,27c60,0 80,10 57,27c-20,17 -60,21 -101,12zm-45,-246c13,-16 12,-17 -3,-4c-17,13 -22,21 -14,21c2,0 10,-8 17,-17zm-223,-247c5,-36 -23,-25 -37,16c-15,42 -14,43 12,26c12,-9 23,-27 25,-42z" fill="#e9c46a" id="svg_37"/>
   <path d="m6425,-7387c-15,-27 -45,-72 -67,-101c-22,-30 -38,-55 -36,-57c1,-1 23,-13 48,-25c78,-39 153,-95 216,-162c60,-62 137,-170 149,-209c4,-10 10,-19 15,-19c10,0 87,103 159,213l52,78l-28,52c-39,71 -135,167 -213,210c-71,39 -166,67 -228,67c-37,0 -42,-3 -67,-47z" fill="#e9c46a" id="svg_38"/>
   <path d="m6190,-7680l-86,-86l64,-74c81,-95 172,-231 224,-334c22,-45 42,-83 44,-85c12,-13 274,234 274,258c0,24 -75,148 -126,208c-74,86 -246,205 -290,201c-11,-1 -57,-40 -104,-88z" fill="#e9c46a" id="svg_39"/>
   <path d="m5976,-7851c-50,-32 -107,-66 -128,-76c-44,-21 -46,-31 -14,-81c61,-98 124,-274 150,-420c7,-46 16,-86 19,-89c11,-11 294,148 390,218c28,20 -201,377 -317,495c-8,8 -35,-4 -100,-47z" fill="#e9c46a" id="svg_40"/>
  </g>
 </g>
</svg>